<svg xmlns="http://www.w3.org/2000/svg" viewBox="0 0 93.73 63.26"><defs><style>.cls-1{fill:#fff;}.cls-1,.cls-2,.cls-3{stroke:#231f20;stroke-miterlimit:10;stroke-width:3px;}.cls-2,.cls-3{fill:none;}.cls-3{opacity:0.43;}</style></defs><g id="Layer_8" data-name="Layer 8"><path class="cls-1" d="M8,10.22c-.09,0-.08-.05,0,0l.5.29.81.49,9.18,5.46,8.29,4.93.86.51L32,24.5,40,29.21l.47.28,1.38.82L44.71,32a5.61,5.61,0,0,0,5.81,0l17-10.14L85.9,11l.81-.49.5-.29"/><path class="cls-2" d="M8.05,10.2H9.36l9.18-.1L26.83,10h.86l4.38,0L40,9.85h.47l1.38,0,2.9,0c1.83,0,4,0,5.81,0l17,.18,18.33.2h1.31"/><path class="cls-1" d="M87.53,12.37V53.19a3,3,0,0,1-3,3H10.7a3,3,0,0,1-3-3V12.37c0-3.26.25-1.58.77-2h.88l4,2.41,14.36,8.76,9.16,5.59,5.33,3.25,2.56,1.56a5.44,5.44,0,0,0,5.81,0l3.64-2.22,7.06-4.31,6.35-3.87L72,18.84l.22-.13.28-.17,13.39-8.17h.88C87.25,10.9,87.53,9,87.53,12.37Z"/><path class="cls-3" d="M8.34,55.69l.3-.17h.87L22.58,47l.28-.17.22-.13,4.43-2.69,6.35-3.86,7.07-4.3,3.64-2.21a5.44,5.44,0,0,1,5.81,0l2.56,1.56,5.33,3.26,9.15,5.61,14.34,8.79,3.95,2.41.54.33.28.17"/></g></svg>