<svg id="Layer_1" data-name="Layer 1" xmlns="http://www.w3.org/2000/svg" viewBox="0 0 94.56 95.23"><defs><style>.cls-1{fill:#fff;}.cls-1,.cls-3,.cls-4,.cls-5{stroke:#231f20;}.cls-1,.cls-2,.cls-3,.cls-4,.cls-5{stroke-miterlimit:10;}.cls-1,.cls-2,.cls-3,.cls-4{stroke-width:3px;}.cls-2,.cls-3,.cls-4{fill:none;}.cls-2{stroke:#a7a9ac;}.cls-4{opacity:0.43;}.cls-5{fill:#009444;}.cls-6{fill:#006838;}</style></defs><path class="cls-1" d="M8.7,34.68c-.09,0-.08,0,0,0l.5-.3.81-.5,9.18-5.6,8.29-5.06.86-.52L32.72,20l7.92-4.83.47-.29,1.38-.84,2.9-1.77a5.48,5.48,0,0,1,5.81,0l17,10.4L86.58,33.88l.81.5.5.3"/><line class="cls-2" x1="86.58" y1="33.88" x2="10.01" y2="33.88"/><path class="cls-3" d="M8.73,34.68c-.09,0-.08,0,0,0l.5-.3.81-.5,9.18-5.6,8.29-5.06.86-.52L32.75,20l7.92-4.83.47-.29,1.38-.84,2.9-1.77a5.48,5.48,0,0,1,5.81,0L68.28,22.7,86.61,33.88l.81.5.5.3"/><path class="cls-1" d="M85.77,35.36l-12.6,7.69-.28.17-.22.13-4.42,2.7L61.9,49.92l-7.06,4.31L51.2,56.45a5.44,5.44,0,0,1-5.81,0l-2.56-1.56L37.5,51.64l-9.16-5.59L14,37.29l-4-2.41s-1.46-.09-.88,0,.22-.23.34-.33c.52-.42.31.21.32.89"/><path class="cls-1" d="M88.21,36.88V77.7a3,3,0,0,1-3,3H11.38a3,3,0,0,1-3-3V36.88c0-3.26.25-1.59.77-2H10l4,2.41,14.36,8.76,9.16,5.59,5.33,3.25,2.56,1.56a5.44,5.44,0,0,0,5.81,0l3.64-2.22,7.06-4.31,6.35-3.87,4.42-2.7.22-.13.28-.17,13.39-8.17h.88C87.93,35.41,88.21,33.5,88.21,36.88Z"/><path class="cls-4" d="M9,80.19,9.32,80h.87l13.07-8.47.28-.17.22-.13,4.43-2.7,6.35-3.85,7.07-4.3,3.64-2.22a5.46,5.46,0,0,1,5.81,0l2.56,1.57L59,63l9.15,5.61,14.34,8.78,4,2.42.54.33.29.17"/><path class="cls-5" d="M72.89,43.22l-.22.13-4.42,2.7L61.9,49.92l-7.06,4.31L51.2,56.45a5.44,5.44,0,0,1-5.81,0l-2.56-1.56L37.5,51.64l-9.16-5.59L14,37.29l1.4-2.41.57-1,3.24-5.6,7-12,5,2.86,1.61.94L35,21.35l21.7,12.53,1.73,1L71.82,42.6Z"/><path class="cls-5" d="M72.67,43.35l-4.42,2.7L61.9,49.92l-7.06,4.31L51.2,56.45a5.44,5.44,0,0,1-5.81,0l-2.56-1.56L37.5,51.64,18.43,34.88l-.67-.59.36-.41,9.36-10.66,3.63-4.13,6.08-6.92,3.45,3,.11.1L61.9,33.88l1.13,1,8.79,7.72Z"/><path class="cls-5" d="M73.17,43.05l-.28.17-.22.13-4.42,2.7L61.9,49.92l-7.06,4.31L51.2,56.45a5.44,5.44,0,0,1-5.81,0l-2.56-1.56L22,35.18l.28-.3,1-1L35,21.35l5.73-6.05.36-.39,1.07-1.13.31.29,21,19.81,1.06,1Z"/><path class="cls-6" d="M62.91,45.59a7.4,7.4,0,0,1-1,3.73l-7.06,4.31c-.25,0-.52,0-.78,0-4.88,0-8.84-3.62-8.84-8.07s4-8.08,8.84-8.08S62.91,41.13,62.91,45.59Z"/><ellipse class="cls-6" cx="42.25" cy="20.63" rx="3.21" ry="2.54"/><ellipse class="cls-6" cx="28.77" cy="35.53" rx="3.21" ry="2.54"/></svg>